
      <svg data-logo="logo" xmlns="http://www.w3.org/2000/svg" viewBox="0 0 314 64">
        <g id="logogram" transform="translate(0, 63) rotate(270) "><path d="M32 10H42C47.5228 10 52 14.4772 52 20C52 25.5228 47.5228 30 42 30H36V28H42C46.4183 28 50 24.4183 50 20C50 15.5817 46.4183 12 42 12H32V22H42C43.1046 22 44 21.1046 44 20C44 18.8954 43.1046 18 42 18H36V16H42C44.2091 16 46 17.7909 46 20C46 22.2091 44.2091 24 42 24H32V34H42C49.732 34 56 27.732 56 20C56 12.268 49.732 6 42 6H36V4H42C50.8366 4 58 11.1634 58 20C58 28.8366 50.8366 36 42 36H32V40H42C53.0457 40 62 31.0457 62 20C62 8.95431 53.0457 0 42 0H32V10Z" fill="white"/><path d="M20 0C8.95431 0 0 8.95431 0 20C0 31.0457 8.95431 40 20 40H30V30H20C14.4772 30 10 25.5228 10 20C10 14.4772 14.4772 10 20 10H26V12H20C15.5817 12 12 15.5817 12 20C12 24.4183 15.5817 28 20 28H30V18H20C18.8954 18 18 18.8954 18 20C18 21.1046 18.8954 22 20 22H26V24H20C17.7909 24 16 22.2091 16 20C16 17.7909 17.7909 16 20 16H30V6H20C12.268 6 6 12.268 6 20C6 27.732 12.268 34 20 34H26V36H20C11.1634 36 4 28.8366 4 20C4 11.1634 11.1634 4 20 4H30V0H20Z" fill="white"/></g>
        <g id="logotype" transform="translate(46, 12)"><path fill="#b407f2" d="M25.38 33L8.31 33L8.31 7.54L25.35 7.54L25.35 11.86L13.52 11.86L13.52 18.01L24.44 18.01L24.44 22.27L13.52 22.27L13.52 28.68L25.38 28.68L25.38 33ZM32.30 33L27.17 33L27.17 13.89L31.92 13.89L32.18 18.64L31.80 18.64Q32.25 16.88 33.11 15.77Q33.97 14.66 35.14 14.13Q36.30 13.60 37.58 13.60L37.58 13.60Q39.65 13.60 40.91 14.91Q42.18 16.22 42.78 18.95L42.78 18.95L42.18 18.95Q42.60 17.12 43.57 15.94Q44.54 14.75 45.86 14.18Q47.18 13.60 48.64 13.60L48.64 13.60Q50.40 13.60 51.77 14.37Q53.15 15.14 53.94 16.59Q54.74 18.03 54.74 20.11L54.74 20.11L54.74 33L49.61 33L49.61 21.09Q49.61 19.46 48.73 18.68Q47.85 17.89 46.57 17.89L46.57 17.89Q45.61 17.89 44.90 18.31Q44.19 18.73 43.81 19.48Q43.42 20.23 43.42 21.24L43.42 21.24L43.42 33L38.47 33L38.47 20.95Q38.47 19.55 37.64 18.72Q36.81 17.89 35.50 17.89L35.50 17.89Q34.59 17.89 33.86 18.30Q33.14 18.71 32.72 19.51Q32.30 20.30 32.30 21.45L32.30 21.45L32.30 33ZM61.97 40.14L56.84 40.14L56.84 13.89L61.88 13.89L61.88 17.11L62.12 17.11Q62.48 16.35 63.14 15.55Q63.79 14.75 64.87 14.20Q65.95 13.65 67.57 13.65L67.57 13.65Q69.69 13.65 71.45 14.75Q73.21 15.84 74.26 18.03Q75.31 20.22 75.31 23.48L75.31 23.48Q75.31 26.66 74.29 28.86Q73.26 31.05 71.50 32.19Q69.74 33.32 67.54 33.32L67.54 33.32Q65.98 33.32 64.90 32.79Q63.83 32.27 63.15 31.49Q62.48 30.71 62.12 29.94L62.12 29.94L61.97 29.94L61.97 40.14ZM65.96 29.21L65.96 29.21Q67.30 29.21 68.21 28.47Q69.13 27.74 69.60 26.44Q70.07 25.14 70.07 23.46L70.07 23.46Q70.07 21.79 69.60 20.51Q69.13 19.23 68.22 18.49Q67.31 17.76 65.96 17.76L65.96 17.76Q64.65 17.76 63.73 18.47Q62.80 19.17 62.32 20.45Q61.85 21.72 61.85 23.46L61.85 23.46Q61.85 25.19 62.33 26.48Q62.82 27.77 63.74 28.49Q64.67 29.21 65.96 29.21ZM76.63 7.54L81.75 7.54L81.75 33L76.63 33L76.63 7.54ZM92.38 33.38L92.38 33.38Q89.51 33.38 87.41 32.14Q85.31 30.90 84.17 28.68Q83.03 26.47 83.03 23.53L83.03 23.53Q83.03 20.56 84.17 18.35Q85.31 16.13 87.41 14.89Q89.51 13.65 92.38 13.65L92.38 13.65Q95.27 13.65 97.36 14.89Q99.46 16.13 100.59 18.35Q101.73 20.56 101.73 23.53L101.73 23.53Q101.73 26.47 100.59 28.68Q99.46 30.90 97.36 32.14Q95.27 33.38 92.38 33.38ZM92.38 29.34L92.38 29.34Q93.75 29.34 94.67 28.58Q95.59 27.82 96.06 26.50Q96.52 25.17 96.52 23.52L96.52 23.52Q96.52 21.82 96.06 20.51Q95.59 19.19 94.67 18.44Q93.75 17.69 92.38 17.69L92.38 17.69Q91.01 17.69 90.10 18.44Q89.19 19.19 88.72 20.51Q88.26 21.82 88.26 23.52L88.26 23.52Q88.26 25.17 88.72 26.50Q89.19 27.82 90.10 28.58Q91.01 29.34 92.38 29.34ZM102.89 39.77L102.89 39.77L104.07 35.91L104.70 36.06Q105.73 36.33 106.53 36.21Q107.33 36.09 107.82 35.56Q108.31 35.03 108.41 34.08L108.41 34.08L108.55 33.05L101.37 13.89L106.82 13.89L110.03 23.81Q110.61 25.69 110.98 27.57Q111.35 29.45 111.83 31.50L111.83 31.50L110.63 31.50Q111.09 29.45 111.55 27.56Q112.02 25.67 112.63 23.81L112.63 23.81L115.98 13.89L121.36 13.89L113.25 35.26Q112.66 36.79 111.76 37.92Q110.85 39.05 109.50 39.67Q108.15 40.28 106.24 40.28L106.24 40.28Q105.21 40.28 104.32 40.14Q103.44 39.99 102.89 39.77ZM130.45 33.38L130.45 33.38Q127.53 33.38 125.41 32.18Q123.29 30.98 122.16 28.78Q121.02 26.57 121.02 23.55L121.02 23.55Q121.02 20.59 122.15 18.37Q123.28 16.15 125.34 14.90Q127.41 13.65 130.20 13.65L130.20 13.65Q132.08 13.65 133.70 14.25Q135.32 14.85 136.55 16.06Q137.78 17.26 138.48 19.07Q139.17 20.88 139.17 23.34L139.17 23.34L139.17 24.78L123.12 24.78L123.12 21.57L136.66 21.57L134.26 22.42Q134.26 20.93 133.81 19.83Q133.36 18.73 132.46 18.12Q131.56 17.52 130.23 17.52L130.23 17.52Q128.91 17.52 127.98 18.13Q127.05 18.75 126.57 19.80Q126.10 20.85 126.10 22.20L126.10 22.20L126.10 24.47Q126.10 26.13 126.65 27.26Q127.21 28.39 128.21 28.95Q129.21 29.51 130.54 29.51L130.54 29.51Q131.44 29.51 132.18 29.26Q132.91 29.00 133.44 28.50Q133.96 27.99 134.23 27.26L134.23 27.26L138.88 28.13Q138.42 29.70 137.27 30.89Q136.13 32.08 134.41 32.73Q132.69 33.38 130.45 33.38ZM149.03 33.38L149.03 33.38Q146.11 33.38 143.99 32.18Q141.87 30.98 140.73 28.78Q139.59 26.57 139.59 23.55L139.59 23.55Q139.59 20.59 140.72 18.37Q141.85 16.15 143.92 14.90Q145.99 13.65 148.77 13.65L148.77 13.65Q150.65 13.65 152.27 14.25Q153.90 14.85 155.13 16.06Q156.36 17.26 157.05 19.07Q157.74 20.88 157.74 23.34L157.74 23.34L157.74 24.78L141.70 24.78L141.70 21.57L155.23 21.57L152.84 22.42Q152.84 20.93 152.39 19.83Q151.93 18.73 151.04 18.12Q150.14 17.52 148.81 17.52L148.81 17.52Q147.49 17.52 146.56 18.13Q145.63 18.75 145.15 19.80Q144.67 20.85 144.67 22.20L144.67 22.20L144.67 24.47Q144.67 26.13 145.23 27.26Q145.78 28.39 146.78 28.95Q147.78 29.51 149.11 29.51L149.11 29.51Q150.02 29.51 150.75 29.26Q151.49 29.00 152.01 28.50Q152.53 27.99 152.80 27.26L152.80 27.26L157.45 28.13Q156.99 29.70 155.85 30.89Q154.70 32.08 152.98 32.73Q151.27 33.38 149.03 33.38ZM179.38 33L172.56 33L163.64 7.54L169.43 7.54L173.50 19.82Q174.23 22.15 174.98 24.94Q175.73 27.74 176.57 31.05L176.57 31.05L175.44 31.05Q176.26 27.70 176.98 24.93Q177.70 22.15 178.40 19.82L178.40 19.82L182.33 7.54L188.09 7.54L179.38 33ZM197.39 33.38L197.39 33.38Q194.51 33.38 192.41 32.14Q190.31 30.90 189.17 28.68Q188.04 26.47 188.04 23.53L188.04 23.53Q188.04 20.56 189.17 18.35Q190.31 16.13 192.41 14.89Q194.51 13.65 197.39 13.65L197.39 13.65Q200.27 13.65 202.37 14.89Q204.46 16.13 205.60 18.35Q206.73 20.56 206.73 23.53L206.73 23.53Q206.73 26.47 205.60 28.68Q204.46 30.90 202.37 32.14Q200.27 33.38 197.39 33.38ZM197.39 29.34L197.39 29.34Q198.75 29.34 199.68 28.58Q200.60 27.82 201.06 26.50Q201.52 25.17 201.52 23.52L201.52 23.52Q201.52 21.82 201.06 20.51Q200.60 19.19 199.68 18.44Q198.75 17.69 197.39 17.69L197.39 17.69Q196.02 17.69 195.10 18.44Q194.19 19.19 193.73 20.51Q193.27 21.82 193.27 23.52L193.27 23.52Q193.27 25.17 193.73 26.50Q194.19 27.82 195.10 28.58Q196.02 29.34 197.39 29.34ZM213.16 33L208.03 33L208.03 13.89L212.99 13.89L212.99 17.23L213.19 17.23Q213.72 15.45 214.96 14.54Q216.20 13.64 217.81 13.64L217.81 13.64Q218.20 13.64 218.65 13.68Q219.10 13.72 219.46 13.81L219.46 13.81L219.46 18.39Q219.12 18.27 218.47 18.20Q217.82 18.13 217.24 18.13L217.24 18.13Q216.08 18.13 215.14 18.64Q214.20 19.14 213.68 20.04Q213.16 20.93 213.16 22.13L213.16 22.13L213.16 33ZM218.16 13.89L229.49 13.89L229.49 17.81L218.16 17.81L218.16 13.89ZM220.79 27.86L220.79 9.35L225.92 9.35L225.92 27.41Q225.92 28.32 226.32 28.75Q226.72 29.19 227.66 29.19L227.66 29.19Q227.96 29.19 228.49 29.11Q229.01 29.04 229.29 28.97L229.29 28.97L230.02 32.81Q229.17 33.07 228.32 33.17Q227.48 33.27 226.71 33.27L226.71 33.27Q223.84 33.27 222.32 31.87Q220.79 30.47 220.79 27.86L220.79 27.86ZM239.18 33.38L239.18 33.38Q236.26 33.38 234.14 32.18Q232.02 30.98 230.88 28.78Q229.75 26.57 229.75 23.55L229.75 23.55Q229.75 20.59 230.88 18.37Q232.00 16.15 234.07 14.90Q236.14 13.65 238.92 13.65L238.92 13.65Q240.80 13.65 242.43 14.25Q244.05 14.85 245.28 16.06Q246.51 17.26 247.21 19.07Q247.90 20.88 247.90 23.34L247.90 23.34L247.90 24.78L231.85 24.78L231.85 21.57L245.38 21.57L242.99 22.42Q242.99 20.93 242.54 19.83Q242.09 18.73 241.19 18.12Q240.29 17.52 238.96 17.52L238.96 17.52Q237.64 17.52 236.71 18.13Q235.78 18.75 235.30 19.80Q234.82 20.85 234.82 22.20L234.82 22.20L234.82 24.47Q234.82 26.13 235.38 27.26Q235.93 28.39 236.93 28.95Q237.93 29.51 239.27 29.51L239.27 29.51Q240.17 29.51 240.91 29.26Q241.64 29.00 242.16 28.50Q242.68 27.99 242.96 27.26L242.96 27.26L247.61 28.13Q247.15 29.70 246.00 30.89Q244.86 32.08 243.14 32.73Q241.42 33.38 239.18 33.38ZM253.09 33L247.66 33L255.06 21.19L255.04 25.19L248.03 13.89L253.57 13.89L255.30 16.92Q256.12 18.39 256.77 19.83Q257.43 21.28 258.11 22.64L258.11 22.64L256.17 22.64Q256.87 21.29 257.52 19.84Q258.17 18.39 259.02 16.92L259.02 16.92L260.82 13.89L266.25 13.89L259.11 25.24L259.11 21.29L266.52 33L261.02 33L258.90 29.39Q258.06 27.94 257.39 26.49Q256.71 25.04 256.01 23.70L256.01 23.70L257.98 23.70Q257.31 25.04 256.67 26.49Q256.03 27.94 255.21 29.39L255.21 29.39L253.09 33Z"/></g>
        
      </svg>
    