<svg viewBox="0 0 199 42" xmlns="http://www.w3.org/2000/svg" data-logo="logo">
        <g transform="translate(0, 1) rotate(0)" id="logogram" style="opacity: 1;"><path fill="#9E2BA6" d="M20 0C25.3043 4.00466e-07 30.3919 2.10669 34.1426 5.85742C34.8157 6.53058 35.4354 7.24719 36 8H20C16.8174 8 13.7651 9.26421 11.5146 11.5146C9.26421 13.7651 8 16.8174 8 20H20L36.9102 9.31934C38.1656 11.3074 39.0611 13.5027 39.5547 15.8027L32 20H40L39.9941 20.4971C39.8669 25.6213 37.776 30.5092 34.1426 34.1426C30.3919 37.8933 25.3043 40 20 40C14.6957 40 9.60815 37.8933 5.85742 34.1426C5.18426 33.4694 4.56459 32.7528 4 32H20C23.1826 32 26.2349 30.7358 28.4854 28.4854C30.5952 26.3755 31.8383 23.5608 31.9854 20.5947L32 20H20L3.08984 30.6787C1.83452 28.6906 0.941002 26.4951 0.447266 24.1953L8 20H0C8.00931e-07 14.6957 2.1067 9.60815 5.85742 5.85742C9.60815 2.1067 14.6957 -5.79361e-10 20 0Z"></path></g>
        <g transform="translate(46, 8)" id="logotype" style="opacity: 1;"><path d="M13.52 26L8.31 26L8.31 0.54L13.52 0.54L13.52 10.82L24.61 10.82L24.61 0.54L29.84 0.54L29.84 26L24.61 26L24.61 15.15L13.52 15.15L13.52 26ZM37.19 26L32.06 26L32.06 6.89L37.02 6.89L37.02 10.23L37.22 10.23Q37.75 8.45 38.99 7.54Q40.23 6.64 41.84 6.64L41.84 6.64Q42.23 6.64 42.68 6.68Q43.13 6.72 43.49 6.81L43.49 6.81L43.49 11.39Q43.15 11.27 42.50 11.20Q41.85 11.13 41.27 11.13L41.27 11.13Q40.11 11.13 39.17 11.64Q38.23 12.14 37.71 13.04Q37.19 13.93 37.19 15.13L37.19 15.13L37.19 26ZM64.44 26L57.62 26L48.70 0.54L54.49 0.54L58.56 12.82Q59.30 15.15 60.05 17.94Q60.80 20.74 61.64 24.05L61.64 24.05L60.51 24.05Q61.33 20.70 62.05 17.93Q62.77 15.15 63.47 12.82L63.47 12.82L67.40 0.54L73.16 0.54L64.44 26ZM82.45 26.38L82.45 26.38Q79.58 26.38 77.48 25.14Q75.38 23.90 74.24 21.68Q73.10 19.47 73.10 16.53L73.10 16.53Q73.10 13.56 74.24 11.35Q75.38 9.13 77.48 7.89Q79.58 6.65 82.45 6.65L82.45 6.65Q85.34 6.65 87.43 7.89Q89.53 9.13 90.66 11.35Q91.80 13.56 91.80 16.53L91.80 16.53Q91.80 19.47 90.66 21.68Q89.53 23.90 87.43 25.14Q85.34 26.38 82.45 26.38ZM82.45 22.34L82.45 22.34Q83.82 22.34 84.74 21.58Q85.66 20.82 86.13 19.50Q86.59 18.17 86.59 16.52L86.59 16.52Q86.59 14.82 86.13 13.51Q85.66 12.19 84.74 11.44Q83.82 10.69 82.45 10.69L82.45 10.69Q81.08 10.69 80.17 11.44Q79.26 12.19 78.79 13.51Q78.33 14.82 78.33 16.52L78.33 16.52Q78.33 18.17 78.79 19.50Q79.26 20.82 80.17 21.58Q81.08 22.34 82.45 22.34ZM98.22 26L93.10 26L93.10 6.89L98.05 6.89L98.05 10.23L98.26 10.23Q98.79 8.45 100.03 7.54Q101.27 6.64 102.87 6.64L102.87 6.64Q103.27 6.64 103.72 6.68Q104.17 6.72 104.53 6.81L104.53 6.81L104.53 11.39Q104.19 11.27 103.54 11.20Q102.89 11.13 102.31 11.13L102.31 11.13Q101.15 11.13 100.21 11.64Q99.27 12.14 98.74 13.04Q98.22 13.93 98.22 15.13L98.22 15.13L98.22 26ZM103.23 6.89L114.56 6.89L114.56 10.81L103.23 10.81L103.23 6.89ZM105.86 20.86L105.86 2.35L110.99 2.35L110.99 20.41Q110.99 21.32 111.39 21.75Q111.79 22.19 112.73 22.19L112.73 22.19Q113.02 22.19 113.55 22.11Q114.08 22.04 114.35 21.97L114.35 21.97L115.09 25.81Q114.23 26.07 113.39 26.17Q112.54 26.27 111.77 26.27L111.77 26.27Q108.90 26.27 107.38 24.87Q105.86 23.47 105.86 20.86L105.86 20.86ZM124.25 26.38L124.25 26.38Q121.32 26.38 119.21 25.18Q117.09 23.98 115.95 21.78Q114.81 19.57 114.81 16.55L114.81 16.55Q114.81 13.59 115.94 11.37Q117.07 9.15 119.14 7.90Q121.21 6.65 123.99 6.65L123.99 6.65Q125.87 6.65 127.49 7.25Q129.12 7.85 130.35 9.06Q131.58 10.26 132.27 12.07Q132.96 13.88 132.96 16.34L132.96 16.34L132.96 17.78L116.92 17.78L116.92 14.57L130.45 14.57L128.06 15.42Q128.06 13.93 127.61 12.83Q127.15 11.73 126.26 11.12Q125.36 10.52 124.03 10.52L124.03 10.52Q122.71 10.52 121.78 11.13Q120.85 11.75 120.37 12.80Q119.89 13.85 119.89 15.20L119.89 15.20L119.89 17.47Q119.89 19.13 120.44 20.26Q121.00 21.39 122.00 21.95Q123.00 22.51 124.33 22.51L124.33 22.51Q125.24 22.51 125.97 22.26Q126.71 22.00 127.23 21.50Q127.75 20.99 128.02 20.26L128.02 20.26L132.67 21.13Q132.21 22.70 131.07 23.89Q129.92 25.08 128.20 25.73Q126.49 26.38 124.25 26.38ZM138.16 26L132.72 26L140.12 14.19L140.10 18.19L133.10 6.89L138.63 6.89L140.36 9.92Q141.18 11.39 141.84 12.83Q142.50 14.28 143.18 15.64L143.18 15.64L141.23 15.64Q141.93 14.29 142.58 12.84Q143.23 11.39 144.09 9.92L144.09 9.92L145.88 6.89L151.32 6.89L144.17 18.24L144.17 14.29L151.59 26L146.09 26L143.97 22.39Q143.13 20.94 142.45 19.49Q141.78 18.04 141.08 16.70L141.08 16.70L143.04 16.70Q142.38 18.04 141.74 19.49Q141.10 20.94 140.28 22.39L140.28 22.39L138.16 26Z" fill="#b407f2"></path></g>
        
      </svg>